<?xml version="1.0" encoding="UTF-8" standalone="no"?>
<svg
   width="50pt"
   height="55pt"
   viewBox="0 0 50 55"
   version="1.1"
   id="svg81"
   sodipodi:docname="logo_velke_b.svg"
   inkscape:version="1.3 (0e150ed, 2023-07-21)"
   xmlns:inkscape="http://www.inkscape.org/namespaces/inkscape"
   xmlns:sodipodi="http://sodipodi.sourceforge.net/DTD/sodipodi-0.dtd"
   xmlns="http://www.w3.org/2000/svg"
   xmlns:svg="http://www.w3.org/2000/svg">
  <defs
     id="defs81" />
  <sodipodi:namedview
     id="namedview81"
     pagecolor="#ffffff"
     bordercolor="#000000"
     borderopacity="0.25"
     inkscape:showpageshadow="2"
     inkscape:pageopacity="0.0"
     inkscape:pagecheckerboard="0"
     inkscape:deskcolor="#d1d1d1"
     inkscape:document-units="pt"
     inkscape:zoom="7.8758898"
     inkscape:cx="52.05761"
     inkscape:cy="32.250324"
     inkscape:window-width="1704"
     inkscape:window-height="1105"
     inkscape:window-x="0"
     inkscape:window-y="43"
     inkscape:window-maximized="0"
     inkscape:current-layer="#ffffffff" />
  <g
     id="#282725ff"
     transform="scale(0.06195787,0.06179775)">
    <path
       fill="#282725"
       opacity="1"
       d="M 0,0 H 807 V 594.85 C 801.14,662.43 768.3,725.9 720.1,773.1 647.82,845.44 546.62,883.45 445.71,890 H 361.21 C 285.89,884.7 210.72,863.42 147.14,821.8 69.21,772.22 7.59,690.16 0,596.08 V 0 M 12.06,12.05 C 11.98,202.37 11.95,392.7 12.08,583.01 13.37,670.36 66.57,749.37 135.76,799.27 190.09,838.95 254.7,863.84 321.2,873.2 357.56,878.76 394.42,877.72 431.08,877.55 524.19,875.97 617.77,844.63 689.6,784.62 737.94,744.25 776.17,689.51 789.43,627.29 796.51,597.02 794.33,565.8 794.67,535 794.65,360.7 794.71,186.39 794.64,12.09 533.78,11.89 272.91,11.97 12.06,12.05 Z"
       id="path1" />
    <path
       fill="#282725"
       opacity="1"
       d="M 230.37,37.49 C 250.45,33.38 279.17,40.77 281.03,65 284.03,73.54 272.87,69.41 267.83,70.25 268.31,50.86 243.79,45.11 228.99,51.06 217.54,53.85 212.8,72.41 224.08,78.21 239.14,84.09 256.18,84.08 270.77,91.36 288.39,100.72 288.51,129.4 272.02,139.96 257.74,149.36 239,149.43 222.99,145.01 208.31,140.9 199.07,125.52 200.44,110.66 204.68,110.96 210.15,109.83 213.59,111.26 213.55,135.02 244.22,140.43 261.41,131.45 271.89,127.17 273.3,110.14 263.38,104.6 246.28,95.53 223.73,98.97 209.13,84.9 195.13,67.79 208.84,39.42 230.37,37.49 Z"
       id="path2" />
    <path
       fill="#282725"
       opacity="1"
       d="M 342.27,37.43 C 355.01,35.58 368.79,36.91 379.91,43.82 406.95,61.74 410.63,103.09 392.58,128.59 378.34,149.41 347.58,152.78 326.31,141.64 286.5,118.88 294.04,44.15 342.27,37.43 M 344.19,50.37 C 312.55,57.2 307.72,102.53 326.65,124.26 341.28,140.56 371.89,137.9 382.29,118.11 391.67,101.01 391.38,77.58 379.23,61.88 371.19,51.4 356.76,47.75 344.19,50.37 Z"
       id="path3" />
    <path
       fill="#282725"
       opacity="1"
       d="M 424.36,39.09 C 429.33,38.88 434.31,38.93 439.28,39.06 439.72,64.3 438.68,89.63 439.8,114.82 443.33,141.57 487.8,141.31 492.49,115.35 494.43,90.04 492.77,64.49 493.37,39.09 498.21,38.88 503.08,38.94 507.93,39.04 507.64,65.3 508.95,91.68 507.22,117.86 499.98,155.42 437.26,158.63 426.12,122.1 422.21,94.74 425.31,66.71 424.36,39.09 Z"
       id="path4" />
    <path
       fill="#282725"
       opacity="1"
       d="M 535.72,39.06 C 561.35,38.94 587,38.88 612.63,39.09 612.67,43.49 612.79,47.89 612.54,52.28 591.73,52.38 570.91,52.24 550.09,52.35 549.94,62.98 549.93,73.62 550.08,84.25 569.35,84.41 588.63,84.22 607.91,84.34 608.08,88.52 608.06,92.72 607.94,96.9 588.66,97.07 569.36,96.81 550.08,97.03 549.94,108.64 549.98,120.27 550.06,131.89 571.25,132.1 592.45,131.72 613.63,132.08 613.71,136.34 613.7,140.6 613.63,144.86 587.67,145.01 561.69,144.97 535.72,144.88 535.63,109.61 535.63,74.33 535.72,39.06 Z"
       id="path5" />
    <path
       fill="#282725"
       opacity="1"
       d="M 173.09,173.3 C 326.59,173.26 480.1,173.21 633.61,173.33 633.71,302.89 633.71,432.46 633.6,562.03 633.7,599.09 613.33,633.17 586.45,657.42 546.13,694.11 491.92,713.25 437.96,716.15 389.11,717.72 338.64,718.59 292.3,700.57 235.39,679.62 178.65,633.3 173.4,568.99 172.51,437.12 173.13,305.19 173.09,173.3 M 177.08,177 C 176.93,251.37 176.93,325.75 177.08,400.12 194.47,395.16 174.85,426.89 192.57,421.46 192.85,405.62 192.5,389.76 192.73,373.92 195.12,373.78 197.53,373.77 199.92,373.91 200.16,389.75 199.85,405.6 200.06,421.44 202.68,421.56 205.31,421.56 207.94,421.44 208.13,393.94 207.85,366.43 208.08,338.92 210.58,338.8 213.11,338.76 215.61,339 215.79,366.47 215.55,393.94 215.72,421.41 218.34,421.59 220.98,421.56 223.6,421.44 223.8,384.61 223.53,347.77 223.73,310.95 226.12,310.81 228.52,310.8 230.92,310.93 231.18,347.77 230.86,384.61 231.06,421.44 233.68,421.54 236.33,421.61 238.95,421.42 239.13,376.93 238.88,332.43 239.08,287.94 241.47,287.8 243.87,287.82 246.27,287.95 246.47,332.44 246.19,376.95 246.4,421.44 249.12,421.56 251.86,421.57 254.58,421.43 254.82,371.5 254.53,321.56 254.73,271.63 257.13,271.5 259.53,271.49 261.93,271.62 262.13,321.56 261.87,371.51 262.06,421.44 264.68,421.56 267.31,421.56 269.94,421.45 270.12,368.39 269.84,315.32 270.08,262.27 272.46,262.17 274.86,262.18 277.25,262.28 277.5,315.33 277.18,368.39 277.4,421.44 280.02,421.56 282.66,421.59 285.28,421.41 285.44,366.28 285.23,311.16 285.38,256.03 287.89,255.8 290.41,255.82 292.92,255.95 293.14,311.11 292.85,366.29 293.05,421.45 295.68,421.54 298.33,421.61 300.96,421.41 301.1,368.26 300.85,315.1 301.08,261.96 303.47,261.81 305.87,261.83 308.26,261.96 308.48,315.11 308.18,368.28 308.41,421.43 311.03,421.58 313.66,421.59 316.28,421.4 316.48,371.47 316.16,321.53 316.44,271.6 318.93,271.51 321.44,271.49 323.94,271.62 324.12,321.56 323.89,371.5 324.06,421.44 326.68,421.56 329.31,421.56 331.94,421.44 332.12,376.83 331.88,332.22 332.06,287.61 334.46,287.48 336.87,287.49 339.27,287.62 339.47,332.22 339.19,376.83 339.41,421.43 342.03,421.61 344.65,421.54 347.27,421.43 347.46,384.63 347.21,347.81 347.39,311.01 349.78,310.77 352.21,310.77 354.61,311 354.78,347.81 354.55,384.62 354.73,421.43 357.46,421.56 360.2,421.57 362.94,421.45 363.14,393.83 362.89,366.21 363.06,338.59 365.46,338.46 367.87,338.47 370.27,338.61 370.46,366.21 370.2,393.83 370.4,421.44 373.02,421.56 375.65,421.59 378.28,421.41 378.45,405.61 378.21,389.81 378.39,374.01 380.78,373.75 383.22,373.7 385.62,374.04 385.78,389.83 385.55,405.63 385.73,421.43 400.91,426.95 386.47,402.52 401.62,407.77 401.71,330.88 401.7,253.97 401.62,177.08 326.79,176.77 251.93,176.94 177.08,177 M 405.18,177.04 C 405,258.5 404.89,340 405.23,421.46 480,421.49 554.78,421.56 629.55,421.43 629.74,340.02 629.65,258.59 629.59,177.18 554.81,176.63 479.97,176.9 405.18,177.04 M 177.23,425.34 C 176.79,472.54 176.82,519.79 177.24,567 180.9,626.5 231.47,670.82 283.17,692.7 320.31,708.68 361.27,714.15 401.47,712.48 401.86,616.8 401.67,521.07 401.56,425.38 326.8,425.07 251.99,425.16 177.23,425.34 M 412.93,425.3 C 412.29,429.64 412.98,434.03 412.49,438.38 409.44,439.02 403.71,436.94 404.93,441.99 405.11,532.19 404.48,622.44 405.24,712.62 466.39,715.38 530.3,699.75 577.8,659.76 605.52,636.73 627.85,603.93 629.44,566.99 629.82,527.28 629.74,487.53 629.48,447.83 611.58,452.79 631.72,420.21 613.94,425.29 613.14,441.02 614.06,456.83 613.5,472.57 611.18,472.89 608.81,472.89 606.49,472.57 605.95,456.83 606.85,441.03 606.07,425.31 603.53,425.09 600.96,425.1 598.43,425.36 598.11,452.91 598.65,480.49 598.17,508.04 595.9,507.72 590.49,509.8 591.11,506.01 590.86,479.12 591.52,452.19 590.78,425.32 588.18,425.09 585.55,425.1 582.95,425.32 582.21,462.06 582.98,498.87 582.57,535.63 580.19,535.86 577.79,535.86 575.42,535.64 575.2,499.76 575.42,463.87 575.32,428 576.18,423.33 570.16,425.66 567.43,425.35 567.08,469.9 567.65,514.48 567.14,559.02 564.83,559.27 562.5,559.29 560.2,559.04 559.58,514.48 560.32,469.87 559.81,425.31 557.27,425.09 554.72,425.09 552.2,425.3 551.67,475.19 552.51,525.12 551.78,575 549.34,575.31 546.84,575.31 544.43,574.82 544.23,525.89 544.43,476.93 544.33,427.99 545.24,423.34 539.23,425.59 536.49,425.42 536.16,477.6 536.45,529.81 536.34,581.99 537.18,586.36 531.86,584.44 529.29,584.65 528.46,531.58 529.43,478.39 528.75,425.32 526.03,425.64 520.01,423.33 520.96,428.01 520.73,482.21 521.18,536.44 520.74,590.64 518.29,590.44 512.82,592.3 513.65,588.03 513.61,533.81 513.75,479.58 513.58,425.35 510.87,425.09 508.13,425.08 505.42,425.35 505.1,478.31 505.63,531.31 505.16,584.28 502.84,584.54 500.48,584.56 498.17,584.28 497.62,531.3 498.49,478.28 497.79,425.31 495.26,425.08 492.72,425.08 490.21,425.31 489.54,475.19 490.46,525.12 489.79,575 487.48,575.29 485.14,575.27 482.84,575.02 482.37,525.14 482.9,475.23 482.58,425.35 479.88,425.07 477.16,425.07 474.48,425.43 474.17,468.94 474.44,512.48 474.35,556 475.19,560.38 469.79,558.43 467.24,558.64 466.63,514.24 467.45,469.73 466.75,425.33 464.25,425.09 461.73,425.09 459.23,425.31 458.32,462.07 459.64,498.91 458.75,535.66 456.15,535.43 450.74,537.4 451.67,533 451.52,497.14 451.85,461.27 451.51,425.42 449,425.08 446.46,425.1 443.95,425.3 443.13,452.68 444.04,480.16 443.51,507.56 441.09,507.87 438.63,507.88 436.21,507.7 435.67,480.25 436.5,452.75 435.8,425.31 433.27,425.09 430.72,425.09 428.2,425.31 427.49,441.08 428.35,456.91 427.78,472.68 425.52,472.88 423.25,472.87 421,472.68 420.14,456.96 421.04,441.12 420.58,425.36 418.04,425.1 415.47,425.1 412.93,425.3 Z"
       id="path6" />
    <path
       fill="#282725"
       opacity="1"
       d="M 706.17,173.35 C 717.81,171.7 729.78,173 741.55,172.64 741.75,175.04 741.71,177.45 741.64,179.85 730.29,180.82 718.36,178.18 707.38,181.46 698.3,189.09 708.48,202.99 719,199.6 726.8,201.64 745.21,193.86 741.44,207.24 727.14,207.28 712.84,207.28 698.54,207.24 697.43,202.88 698.17,198.99 703.5,200.52 694.85,193.88 694.75,176.97 706.17,173.35 Z"
       id="path7" />
    <path
       fill="#282725"
       opacity="1"
       d="M 78.33,174.44 C 84.1,171.31 85.51,175.98 84.98,181 71.59,181.68 67.88,199.26 74.15,208.94 77.04,213.32 84.36,214.07 87.51,209.57 93.67,199.9 91.46,185.83 101.12,178.25 110.01,171.7 123.23,178.5 124.92,188.92 128.85,201.03 122.58,219.06 107.79,218.45 107.82,215.45 105.43,210.25 110.16,210.3 123.6,207.78 120.96,178.42 105.85,184.7 97.97,193.66 101.35,208.58 91.89,216.83 83.87,223.93 70.25,219.73 66.3,210.13 60.94,197.84 63.82,178.82 78.33,174.44 Z"
       id="path8" />
    <path
       fill="#282725"
       opacity="1"
       d="M 681.39,176.59 C 686.93,180.86 695.96,184.5 693.26,193.06 689.49,196.31 685.44,199.25 681.36,202.09 679.9,195.98 682.21,191.51 688.04,189.36 682.84,186.56 679.56,182.95 681.39,176.59 Z"
       id="path9" />
    <path
       fill="#282725"
       opacity="1"
       d="M 714.33,216.46 C 716.84,216.17 719.37,215.86 721.92,215.9 722.27,226.5 721.69,237.12 722.18,247.71 733.97,249.21 742.33,232.19 731.3,225.7 726.25,224.73 728.04,220.02 728.64,216.27 745.4,219.24 747.76,244.82 733.45,252.5 721.98,258.12 704.13,256.26 698.73,243.08 693.62,231.67 701.84,217.51 714.33,216.46 M 712.41,224.51 C 699.16,226.89 702.4,247.74 715.49,247.38 714.06,240.67 719.44,225.08 712.41,224.51 Z"
       id="path10" />
    <path
       fill="#282725"
       opacity="1"
       d="M 102.41,226.02 C 107.02,224.81 109.3,226.47 108.55,231.23 115.51,230.06 121.52,231.43 123.54,238.87 118.49,239.06 113.42,238.68 108.38,239.05 111.62,248.2 98.87,248.21 102.27,238.98 92.28,239.48 81.56,237.59 72.03,239.96 72.08,244.95 70.65,247.56 65.01,246.91 60.64,236.65 69.96,228.44 80,231.24 87.1,229.16 103.08,236.23 102.41,226.02 Z"
       id="path11" />
    <path
       fill="#282725"
       opacity="1"
       d="M 124.41,250.38 C 127.49,252.87 124.69,261.18 118.87,262.45 123.7,265.51 127.13,269.11 125.28,275.54 120.23,270.82 110.69,267.8 113.4,259.2 116.29,255.75 120.81,253.34 124.41,250.38 Z"
       id="path12" />
    <path
       fill="#282725"
       opacity="1"
       d="M 65.08,252.95 C 79.47,252.86 93.87,252.84 108.26,252.96 108.99,257.29 108.6,261.17 103.11,259.69 112.44,262.44 110.76,281.59 100.24,273.71 105.01,265.82 96.71,259.17 89.01,260.27 80.98,257.92 62.14,266.24 65.08,252.95 Z"
       id="path13" />
    <path
       fill="#282725"
       opacity="1"
       d="M 735.08,259.95 C 737.25,259.81 739.44,259.82 741.61,260.02 741.69,272.51 741.74,285.01 741.59,297.5 726.9,296.22 717.84,279.92 705.68,272.11 700.06,274.19 711.19,299.18 698.08,296.18 697.96,284.54 697.92,272.88 698.09,261.25 712.83,264.07 722.62,279.9 735.33,288.06 734.72,278.7 735.02,269.31 735.08,259.95 Z"
       id="path14" />
    <path
       fill="#282725"
       opacity="1"
       d="M 78.13,278.33 C 94.59,272.1 115.9,287.39 107.45,305.4 103.62,314.17 93.32,317.54 84.39,316.85 84.18,306.28 84.52,295.71 84.23,285.15 72.46,283.6 64.03,300.65 75.09,307.12 80.28,308.04 78.32,313.05 77.76,316.73 58.7,312.93 59.14,281.83 78.13,278.33 M 90.74,285.45 C 90.62,293.28 90.6,301.13 90.75,308.96 106.33,309.66 106.06,285.08 90.74,285.45 Z"
       id="path15" />
    <path
       fill="#282725"
       opacity="1"
       d="M 682.06,304.6 C 702.02,304.51 721.98,304.51 741.94,304.6 742.06,307.01 742.08,309.43 741.93,311.84 721.98,311.92 702.02,311.92 682.07,311.84 681.91,309.43 681.93,307.01 682.06,304.6 Z"
       id="path16" />
    <path
       fill="#282725"
       opacity="1"
       d="M 694.25,321.41 C 702.5,319.19 713.04,322.4 716.06,331.04 718.95,339.43 717.55,348.5 718.11,357.2 725.8,360.17 745.66,351.24 741.86,365.52 721.95,365.39 701.86,365.86 682.07,365.29 683.56,350.83 676.03,327.55 694.25,321.41 M 696.38,329.46 C 685.27,333.63 690.61,348.42 689.41,357.47 696.15,357.59 702.89,357.55 709.63,357.49 711.3,348.25 713.35,325.25 696.38,329.46 Z"
       id="path17" />
    <path
       fill="#282725"
       opacity="1"
       d="M 81.29,323.44 C 98,317.36 119.64,336.85 105.11,352.2 111.27,354.68 129.11,347.14 125.26,360.14 105.39,360.28 85.51,360.2 65.63,360.18 64.67,356.32 64.52,351.38 70.03,353.09 57.73,343.73 67.29,324.22 81.29,323.44 M 80.34,331.45 C 74.99,332.41 70.16,337.28 70.66,342.97 73.47,358.81 106.18,356.53 103.07,339.02 99.99,329.89 88.17,329.96 80.34,331.45 Z"
       id="path18" />
    <path
       fill="#282725"
       opacity="1"
       d="M 65.39,371.26 C 79.79,371.15 94.21,371.14 108.61,371.26 109.39,375.63 108.98,379.91 103.36,378.27 116.15,387.05 108.34,410.08 92,406.2 83.43,403.55 62.61,412.82 65.42,398.57 76.88,397.55 89.05,400.41 100.03,396.9 108.46,388.86 98.35,375.9 88.01,378.84 80.2,376.72 61.9,384.74 65.39,371.26 Z"
       id="path19" />
    <path
       fill="#282725"
       opacity="1"
       d="M 715.37,398.52 C 717.53,398.22 719.71,398.07 721.9,398.17 722.27,408.75 721.72,419.36 722.13,429.94 733.99,431.46 742.29,414.12 731.05,407.82 725.95,406.99 728.1,401.95 728.56,398.37 745.07,401.62 747.71,426.66 733.59,434.54 721.84,440.71 702.83,438.27 698.19,424.13 693.81,412.41 702.92,398.97 715.37,398.52 M 714.22,406.36 C 699.45,406.82 701.17,430.13 715.55,429.63 714.85,422.43 717.54,410.86 714.22,406.36 Z"
       id="path20" />
    <path
       fill="#282725"
       opacity="1"
       d="M 681.38,407 C 686.16,411.45 695.59,414.07 693.28,422.19 685.82,419.53 678.16,416.51 681.38,407 Z"
       id="path21" />
    <path
       fill="#282725"
       opacity="1"
       d="M 65.45,419.55 C 79.82,419.48 94.21,419.46 108.59,419.56 108.73,422.01 108.73,424.48 108.63,426.94 94.16,427.47 79.59,427.11 65.08,427.12 65.15,424.72 64.45,421.35 65.45,419.55 Z"
       id="path22" />
    <path
       fill="#282725"
       opacity="1"
       d="M 113.68,419.27 C 121.12,421.59 128.29,425.12 125.27,434.23 120.63,429.8 111.47,427.21 113.68,419.27 Z"
       id="path23" />
    <path
       fill="#282725"
       opacity="1"
       d="M 741.2,441.28 C 747.78,451.45 728.16,457.21 720.47,463.71 724.91,474.95 746.24,460.75 742.26,476.1 722.31,476.13 702.32,476.37 682.38,475.99 682.27,473.5 682.25,471.02 682.42,468.54 693.62,468.37 704.83,468.59 716.04,468.45 709.53,460.02 695.47,454.75 698.72,442.16 704.33,447.38 709.49,453.07 715.1,458.3 723.88,452.76 732.48,446.92 741.2,441.28 Z"
       id="path24" />
    <path
       fill="#282725"
       opacity="1"
       d="M 81.4,460.53 C 98.47,455.31 116.6,473.57 106.89,490.05 98.61,504.35 72.4,504.15 65.52,488.63 59.71,476.83 68,461.26 81.4,460.53 M 81.14,468.36 C 70.84,468.83 66.07,483.37 74.64,489.39 83.57,495.03 101.35,494.02 102.9,481.1 103.78,469.77 90.03,466.02 81.14,468.36 Z"
       id="path25" />
    <path
       fill="#282725"
       opacity="1"
       d="M 726.95,481.99 C 739.47,482.54 746.89,497.37 741.35,508.17 735.55,520.33 719.04,521.27 707.93,516.77 694.44,511.19 693.76,488.09 708.3,483.43 712.53,480.11 712.94,487.73 712.12,489.85 703.47,491.18 701.15,503.17 707.93,508.17 714.66,512.66 723.97,512.35 731.24,509.34 739.4,505.55 738.21,491.42 728.98,489.96 723.99,490.24 726.94,484.94 726.95,481.99 Z"
       id="path26" />
    <path
       fill="#282725"
       opacity="1"
       d="M 80.42,506.55 C 96.44,500.68 118.66,518.62 105.13,534.25 107.07,539.06 129.55,528.98 124.61,542.98 104.67,543.31 84.69,543.12 64.74,543.07 64.32,539.15 63.78,534.51 69.22,536.03 57.28,526.61 66.61,507.48 80.42,506.55 M 79.4,514.51 C 70.19,515.72 66.43,529.08 75.02,533.79 83.8,538.11 100.33,537.85 102.67,526.01 103.67,513.92 88.1,512.16 79.4,514.51 Z"
       id="path27" />
    <path
       fill="#282725"
       opacity="1"
       d="M 681.73,528.2 C 688.1,526.83 692.38,528.6 690.26,535.73 683.87,537.12 679.63,535.32 681.73,528.2 Z"
       id="path28" />
    <path
       fill="#282725"
       opacity="1"
       d="M 698.38,528.2 C 712.79,528.09 727.21,528.09 741.62,528.2 741.72,530.71 741.72,533.22 741.61,535.74 727.21,535.85 712.79,535.85 698.39,535.74 698.26,533.22 698.26,530.71 698.38,528.2 Z"
       id="path29" />
    <path
       fill="#282725"
       opacity="1"
       d="M 706.39,543.48 C 718.25,542.44 730.16,544.56 742.04,544.94 742.11,547.47 741.98,550.02 741.47,552.5 730.21,552.45 718.64,549.35 707.56,551.51 697.58,557.92 706.42,573.03 717.21,570.61 724.86,573.35 743.76,566.55 739.74,579.52 725.25,578.79 710.75,577.78 696.29,576.61 696.1,572.37 696.57,568.51 701.87,570.11 693.81,562.92 695.08,546.48 706.39,543.48 Z"
       id="path30" />
    <path
       fill="#282725"
       opacity="1"
       d="M 111.35,550.55 C 117.5,550.6 128.2,547.17 124.97,557.33 118.31,558.06 111.58,557.79 104.92,558.52 112.37,565.11 111.9,578 103.81,583.83 94.45,590.31 80.42,590.86 71.22,583.82 63.62,578.09 62.31,565.67 69.95,559.39 64.68,561.29 64.28,557.19 65.08,552.86 80.46,551.73 95.93,551.42 111.35,550.55 M 87.45,558.55 C 79.55,557.92 68.78,563.23 71.46,572.63 76.18,584.31 95.61,583.74 102.58,574.6 107.88,565.12 96.24,556.86 87.45,558.55 Z"
       id="path31" />
    <path
       fill="#282725"
       opacity="1"
       d="M 703.37,583.49 C 715.12,583.89 726.62,587.21 738.23,589 737.9,591.46 737.47,593.93 736.87,596.35 726.54,594.8 716.35,592.17 705.97,591.11 694.93,591.21 695.65,609.32 705.88,610.67 714.15,615.35 736.71,609.68 731.78,623.15 712.15,619.76 692.56,616.12 672.96,612.57 671.3,598.71 688.93,610.41 694.54,608.43 688.24,600.12 692.02,584.63 703.37,583.49 Z"
       id="path32" />
    <path
       fill="#282725"
       opacity="1"
       d="M 91.41,593.51 C 103.82,589.96 117.07,600.08 116.69,612.99 117.36,631.1 92.17,639.31 79.01,629.93 63.75,618.84 72.65,593.42 91.41,593.51 M 91.21,601.38 C 82.41,602.07 73.85,611.36 79.14,620.08 86.71,632.03 112.91,625.37 109.84,609.83 108.2,601.59 98.32,599.2 91.21,601.38 Z"
       id="path33" />
    <path
       fill="#282725"
       opacity="1"
       d="M 693.36,623.45 C 699.73,620.79 704.67,624.12 700.39,630.37 691.76,627.76 684.25,637.78 688.51,645.42 692.8,652.12 701.33,655.39 709.01,655.74 718.34,655.75 723.22,642.05 715.03,636.86 710.83,635.07 715.69,631.46 716.86,628.99 726.94,634.37 728.65,648.73 720.82,656.79 711.73,667.73 694.78,662.72 685.85,654.14 676.07,645.34 681.17,627.15 693.36,623.45 Z"
       id="path34" />
    <path
       fill="#282725"
       opacity="1"
       d="M 117.35,634.45 C 122.83,631.29 124.92,642.99 117.6,641.41 127.16,640.86 132.73,659.56 119.96,655.68 120.38,651 117.77,644.9 111.97,645.41 101.57,646.57 92.01,651.44 81.99,654.26 81.01,651.96 80.23,649.58 79.63,647.17 92.21,642.97 104.76,638.64 117.35,634.45 Z"
       id="path35" />
    <path
       fill="#282725"
       opacity="1"
       d="M 129.06,660.24 C 132.61,661.6 134.1,667.45 128.54,668.38 139.89,669.58 148.55,686.42 138.29,694.28 129.66,700.21 119.98,704.5 110.9,709.74 107.67,712.43 106.87,706.22 105.27,704.35 114.27,698.89 124.07,694.73 132.77,688.78 139.86,682.25 130.28,670.24 121.92,673.32 112.58,676.78 104.34,682.67 95.36,686.94 94.06,684.84 92.83,682.68 91.84,680.42 104.24,673.68 116.59,666.84 129.06,660.24 Z"
       id="path36" />
    <path
       fill="#282725"
       opacity="1"
       d="M 676.29,662.4 C 683.59,660.28 691.16,663.72 696.87,668.17 690.91,676.88 684.42,685.24 678.61,694.06 687.46,702.01 704.37,692.59 698.65,680.88 695.29,677.3 699.78,674.35 702.45,672.15 713.75,684.2 701.44,705.17 686,704.42 676.68,703.67 668.04,697.61 663.41,689.61 657.7,679.15 665.06,665.08 676.29,662.4 M 676.14,669.35 C 667.31,671.99 665.58,685.24 673.47,690.05 678.1,683.75 682.69,677.4 687.1,670.95 683.79,669.17 679.82,667.89 676.14,669.35 Z"
       id="path37" />
    <path
       fill="#282725"
       opacity="1"
       d="M 639.02,680.68 C 642.5,684.05 645.58,687.83 649.23,691.04 652.3,690.06 654.61,684.1 657.24,688.75 662.41,691.78 651.27,693.75 655.04,696.94 661.91,703.07 667.27,711.05 674.96,716.15 679.17,713.58 681.94,711.08 685.72,716.41 682.48,720.8 676.89,726.7 671.02,723.1 662.7,716.48 656.2,707.78 648.06,700.98 645.68,704.86 642.54,703.8 640.45,700.28 648.95,694.05 630.57,689.35 639.02,680.68 Z"
       id="path38" />
    <path
       fill="#282725"
       opacity="1"
       d="M 171.35,696.46 C 175.97,693.78 178.24,700.17 181.22,702.64 174.79,702.44 165.99,706.85 162.46,699.23 165.42,698.29 168.4,697.44 171.35,696.46 Z"
       id="path39" />
    <path
       fill="#282725"
       opacity="1"
       d="M 143.36,699.45 C 164.59,693.28 177.22,725.21 157.87,735.7 150.24,729.01 143.53,719.94 135.51,713.18 126.39,720.21 131.65,737.32 143.85,735.27 148.44,732.29 150.78,736.99 152.86,740.39 138.51,749.15 119,732.34 124.23,716.89 127.41,708.58 134.87,701.95 143.36,699.45 M 145.35,706.44 C 135.55,710.85 153.68,719.46 156.55,725.84 167.19,719.03 156.68,701.49 145.35,706.44 Z"
       id="path40" />
    <path
       fill="#282725"
       opacity="1"
       d="M 633.4,710.52 C 645.5,709.03 655.01,719.8 658.59,730.29 662.52,744.68 645.91,758.82 632.25,753.62 624.05,750.36 617.99,742.6 615.53,734.28 612.46,722.98 622.55,711.96 633.4,710.52 M 632.39,717.46 C 611.15,722.19 629.64,755.66 646.02,746.01 659.25,737.34 645.77,715.83 632.39,717.46 Z"
       id="path41" />
    <path
       fill="#282725"
       opacity="1"
       d="M 605.35,727.49 C 610.54,724.87 610.11,730.73 610.55,734.26 605.52,734.34 600.01,738.36 601.92,743.95 604.95,753.72 611.76,761.76 616.34,770.83 614.24,772.17 612.06,773.38 609.85,774.54 602.55,762.26 595.27,749.95 588.12,737.57 591.73,734.77 595.38,733.53 596.82,738.94 596.67,733.61 599.65,728.2 605.35,727.49 Z"
       id="path42" />
    <path
       fill="#282725"
       opacity="1"
       d="M 188.35,730.11 C 190.23,729.28 193.01,732.3 195.14,733.29 190.09,742.64 183.38,751.12 179.14,760.87 177.34,773.39 197.31,774.29 200.33,763.27 206.34,757.45 209.14,737.96 218.96,747.3 211.57,759.46 204.14,771.61 196.64,783.7 192.12,782.38 189.57,779.39 193.64,775.58 183.23,780.39 167.56,770.66 171.5,758.65 176.22,748.66 182.81,739.66 188.35,730.11 Z"
       id="path43" />
    <path
       fill="#282725"
       opacity="1"
       d="M 569.32,731.07 C 573.56,730.27 573.2,747.98 580.67,741.6 587.07,740.35 585.05,748.96 578.9,748.95 582.85,757.68 586.3,766.76 591.07,775.06 595.41,775.7 599.24,771.78 601,778.05 599.78,782.69 588.4,786.12 584.96,779.99 579.96,770.97 576.28,761.28 571.79,752 567.84,754.89 565.41,753.37 564.45,748.77 574.88,746.62 559.38,736.11 569.32,731.07 Z"
       id="path44" />
    <path
       fill="#282725"
       opacity="1"
       d="M 235.9,736.09 C 241.93,737.38 245.63,740.96 245.31,747.35 249.77,743.12 254.75,742.78 259.72,746.52 253.46,749.3 247,756.14 240.37,750.54 237.4,746.71 237.46,740.8 235.9,736.09 Z"
       id="path45" />
    <path
       fill="#282725"
       opacity="1"
       d="M 528.27,745.4 C 535.1,751.01 536.49,766.33 542.16,774.84 547.8,766.48 548.1,751.51 560.95,750.36 557.95,757.35 554.28,764.08 551.38,771.1 560.17,777.35 569.2,783.28 577.93,789.61 566.34,798.8 557.14,779.88 547.69,778.71 539.78,786.62 559.66,800.73 544.27,802.22 537.08,784 529.76,765.8 522.92,747.45 524.68,746.7 526.46,746.03 528.27,745.4 Z"
       id="path46" />
    <path
       fill="#282725"
       opacity="1"
       d="M 265.27,748.53 C 272.71,748.19 272.65,754.39 269.04,758.6 261.59,758.91 261.53,752.97 265.27,748.53 Z"
       id="path47" />
    <path
       fill="#282725"
       opacity="1"
       d="M 278.9,752.98 C 281.33,753.43 283.73,754.04 286.08,754.85 281.17,773.77 275.84,792.59 270.73,811.47 268.26,811.04 265.85,810.35 263.43,809.71 268.4,790.75 273.57,771.83 278.9,752.98 Z"
       id="path48" />
    <path
       fill="#282725"
       opacity="1"
       d="M 227.44,754.53 C 239.55,750.23 256.4,761.24 251.94,774.96 249.05,773.9 243.43,774.54 244.97,769.99 245.58,760.67 232.21,757.22 226.5,763.5 221.85,768.73 218.35,775.95 219.27,783.08 220.77,791.57 233.45,794.73 238.33,787.33 240.16,783.35 243.71,788.01 246.22,789.1 239.05,802.81 217.09,799.39 212.48,785.38 209.15,773.58 216.18,759.26 227.44,754.53 Z"
       id="path49" />
    <path
       fill="#282725"
       opacity="1"
       d="M 296.31,757.36 C 303.47,756.67 303.76,761.66 301.23,767.05 293.97,768.05 292.57,762.01 296.31,757.36 Z"
       id="path50" />
    <path
       fill="#282725"
       opacity="1"
       d="M 312.89,761.3 C 319.11,760.86 323.26,763.78 324.6,769.87 328.01,764.94 332.56,763.04 338.3,765.63 333.07,770.29 327.79,778.08 319.99,774 317.06,770.4 315.13,765.54 312.89,761.3 Z"
       id="path51" />
    <path
       fill="#282725"
       opacity="1"
       d="M 471.34,761.48 C 473.11,761.12 474.9,760.76 476.72,760.6 480.47,779.79 484.47,798.95 488.04,818.17 485.61,818.79 483.14,819.2 480.67,819.57 477.05,801.75 473.56,783.89 470.02,766.05 469.83,764.23 468.14,761.13 471.34,761.48 Z"
       id="path52" />
    <path
       fill="#282725"
       opacity="1"
       d="M 259.54,764.35 C 261.52,763.49 264.66,765.31 266.96,766.05 262.68,779.56 257.99,792.94 253.69,806.44 251.19,805.94 248.77,805.08 246.4,804.17 250.66,790.86 255.3,777.66 259.54,764.35 Z"
       id="path53" />
    <path
       fill="#282725"
       opacity="1"
       d="M 370.02,768.1 C 376.01,766.79 380.52,768.64 383,774.25 385.78,769.05 389.96,766.56 396.12,768.11 391.43,773.04 388.28,781.85 379.97,779.36 375.73,777.17 373.38,771.68 370.02,768.1 Z"
       id="path54" />
    <path
       fill="#282725"
       opacity="1"
       d="M 353.42,769.51 C 359.33,768.61 348.64,786.26 358.93,783.79 365.23,786.1 358.97,792.17 353.59,789.45 353.32,799.19 350.39,809.41 352.03,818.89 357.15,819.39 359.57,820.96 358.68,826.6 353.34,827.1 345.86,827 343.78,820.89 343.32,810.14 345.39,799.46 345.91,788.73 341.13,789.14 339.58,786.93 341.21,782.29 351.48,785.94 342.75,769.26 353.42,769.51 Z"
       id="path55" />
    <path
       fill="#282725"
       opacity="1"
       d="M 507.34,769.45 C 519.39,766.6 529.76,777.56 530.92,788.89 520.53,791.58 509.95,793.55 499.54,796.19 501.04,808.04 519.69,811.9 523.52,799.7 523.11,794.47 528.86,795.68 532.31,795.37 532.48,810.23 513.6,818.04 501.69,811.38 485.79,802.17 486.62,771.77 507.34,769.45 M 509.3,775.42 C 502.09,775.74 497.18,782.96 498.32,789.84 506.13,788.39 513.83,786.38 521.61,784.72 520.5,779.11 515.07,774.73 509.3,775.42 Z"
       id="path56" />
    <path
       fill="#282725"
       opacity="1"
       d="M 292.19,772.95 C 294.65,773.36 297.09,773.9 299.49,774.61 296.29,788.42 293.1,802.23 289.73,816 287.24,815.65 284.78,815.07 282.37,814.39 285.55,800.56 288.69,786.7 292.19,772.95 Z"
       id="path57" />
    <path
       fill="#282725"
       opacity="1"
       d="M 314.34,778.48 C 323.85,776.76 337.84,781.65 337.09,793.29 334.61,793.43 332.13,793.41 329.66,793.33 330.63,784.04 312.83,780.28 311.43,789.64 316.91,798.91 335.95,797.25 335.36,811.01 332.77,830.51 297.48,824.96 299.64,805.7 302.38,806.45 308.02,804.28 307.5,808.72 308.19,818.56 329.2,820.57 327.03,808.96 320.89,802.75 310.16,802.66 305.15,794.93 301.28,788.1 306.77,779.14 314.34,778.48 Z"
       id="path58" />
    <path
       fill="#282725"
       opacity="1"
       d="M 447.38,780.49 C 460.07,778.45 470.03,790.58 469.71,802.54 459.05,804.07 448.26,804.63 437.59,806.09 437.59,818.39 456.46,824.06 461.2,811.88 461.6,807.01 466.91,809.45 470.22,809.13 468.39,826.67 441.32,830.84 433.04,816.04 424.84,803.3 430.21,781.4 447.38,780.49 M 445.15,787.36 C 439.92,788.94 437.2,794.48 437.26,799.66 445.2,799.01 453.14,798.15 461.05,797.21 460.29,789.73 452.26,784.48 445.15,787.36 Z"
       id="path59" />
    <path
       fill="#282725"
       opacity="1"
       d="M 382.33,783.49 C 395.15,782.54 404.19,795.56 402.49,807.51 391.89,807.98 381.25,807.51 370.64,807.73 368.16,819.5 386.31,827.68 392.69,816.77 393.59,811.54 398.65,813.79 402.37,814.22 399.12,828.67 379.07,832.43 368.89,823.12 355.84,811.15 362.51,782.73 382.33,783.49 M 378.37,790.49 C 373.67,792.03 371.05,796.86 370.48,801.54 378.47,801.8 386.51,801.81 394.5,801.53 394.67,793.41 385.92,787.18 378.37,790.49 Z"
       id="path60" />
  </g>
  <g
     id="#ffffffff">
    <path
       fill="#ffffff"
       opacity="1"
       d="M 0.7472119,0.74466292 C 16.908922,0.7397191 33.071871,0.73477528 49.234201,0.74713483 49.238538,11.518483 49.23482,22.290449 49.236059,33.061798 49.214994,34.965169 49.350062,36.894494 48.9114,38.765112 48.089839,42.610169 45.72119,45.992978 42.726146,48.487753 38.275713,52.196236 32.477695,54.132978 26.708798,54.230618 24.437423,54.241124 22.153656,54.305393 19.900867,53.961798 15.780669,53.383371 11.777571,51.845225 8.4114002,49.39309 4.1245353,46.309382 0.8283767,41.426742 0.74845105,36.028708 0.74039653,24.267978 0.74225527,12.506011 0.7472119,0.74466292 M 14.273234,2.3167978 C 12.939281,2.4360674 12.089839,4.1892697 12.957249,5.2466292 13.861834,6.1161236 15.258984,5.9035393 16.318463,6.4640449 16.933086,6.8064045 16.845725,7.8588202 16.196406,8.1233146 15.131351,8.6782584 13.231103,8.3439326 13.233581,6.875618 13.020446,6.7872472 12.681537,6.8570787 12.418835,6.8385393 12.333953,7.7568539 12.906444,8.7073034 13.815985,8.9612921 14.807931,9.2344382 15.969021,9.2301124 16.853779,8.6492135 17.875465,7.9966292 17.86803,6.2242697 16.776332,5.6458427 15.872367,5.1959551 14.816605,5.196573 13.883519,4.8332022 13.184634,4.4747753 13.478315,3.327809 14.187732,3.1553933 15.104709,2.7876966 16.623916,3.1430337 16.594176,4.3412921 16.906444,4.289382 17.597893,4.5446067 17.41202,4.0168539 17.296778,2.5194944 15.517348,2.062809 14.273234,2.3167978 M 21.20632,2.3130899 C 18.218092,2.7283708 17.750929,7.3465169 20.217472,8.7530337 21.535316,9.4414607 23.44114,9.2332022 24.32342,7.946573 25.44176,6.3707303 25.213755,3.8153933 23.538414,2.7079775 22.849442,2.2809551 21.995663,2.198764 21.20632,2.3130899 M 26.292441,2.4156742 C 26.351301,4.1225281 26.159232,5.8547191 26.401487,7.5455056 27.091698,9.8029775 30.977695,9.6046067 31.42627,7.2834831 31.533457,5.665618 31.452292,4.0353933 31.47026,2.4125843 31.169765,2.4064045 30.86803,2.4026966 30.568154,2.4156742 30.530979,3.9853371 30.633829,5.5642697 30.513631,7.1283708 30.223048,8.7326404 27.467782,8.7487079 27.249071,7.095618 27.179678,5.5389326 27.244114,3.9735955 27.216853,2.4138202 26.908922,2.4057865 26.600372,2.4026966 26.292441,2.4156742 M 33.192069,2.4138202 C 33.186493,4.593427 33.186493,6.7736517 33.192069,8.9532584 34.801115,8.9588202 36.410781,8.9612921 38.019207,8.9520225 38.023544,8.688764 38.024164,8.4255056 38.019207,8.1622472 36.706939,8.14 35.393432,8.1634831 34.080545,8.1505056 34.075589,7.4324157 34.07311,6.7137079 34.081784,5.996236 35.276332,5.9826404 36.472119,5.9987079 37.666667,5.9882022 37.674102,5.7298876 37.675341,5.4703371 37.664808,5.2120225 36.47026,5.2046067 35.275713,5.2163483 34.081784,5.2064607 34.072491,4.5495506 34.07311,3.8920225 34.082404,3.2351124 35.372367,3.2283146 36.66233,3.2369663 37.951673,3.2307865 37.967162,2.9594944 37.959727,2.6875843 37.957249,2.4156742 36.369269,2.4026966 34.78005,2.4064045 33.192069,2.4138202 M 10.724287,10.709551 C 10.726766,18.860056 10.688352,27.013034 10.743494,35.162303 11.068773,39.136517 14.584263,41.998989 18.110285,43.293652 20.981413,44.407247 24.108426,44.353483 27.135068,44.256461 30.478315,44.077247 33.837051,42.894438 36.335192,40.627079 38.00062,39.128483 39.262701,37.022416 39.256506,34.732191 39.263321,26.725056 39.263321,18.717921 39.257125,10.711404 29.745973,10.703989 20.23482,10.707079 10.724287,10.709551 M 43.752788,10.71264 C 43.045229,10.936348 43.051425,11.981348 43.587361,12.391685 43.257125,12.297135 43.211276,12.537528 43.28005,12.806966 44.166047,12.809438 45.052045,12.809438 45.938042,12.806966 46.171623,11.980112 45.030979,12.460899 44.547708,12.334831 43.895911,12.544326 43.26518,11.685337 43.827757,11.21382 44.508055,11.011124 45.247212,11.17427 45.950434,11.114326 45.954771,10.966011 45.957249,10.817079 45.944857,10.668764 45.215613,10.691011 44.473978,10.610674 43.752788,10.71264 M 4.8531599,10.78 C 3.9541512,11.050674 3.7757125,12.226067 4.1078067,12.985562 4.3525403,13.57882 5.1964064,13.838371 5.6933086,13.399607 6.27943,12.889775 6.0700124,11.967753 6.5582404,11.414045 7.4944238,11.025955 7.6579926,12.840337 6.8252788,12.996067 6.5322181,12.992978 6.6802974,13.314326 6.6784387,13.499719 7.5947955,13.537416 7.9832714,12.423202 7.739777,11.674831 7.6350682,11.030899 6.8159851,10.610674 6.2651797,11.015449 5.6666667,11.483876 5.8035936,12.353371 5.4219331,12.950955 5.2267658,13.229045 4.7732342,13.182697 4.594176,12.912022 4.2057001,12.31382 4.4355638,11.227416 5.2651797,11.185393 5.2980173,10.875169 5.2106568,10.586573 4.8531599,10.78 M 42.217472,10.912865 C 42.104089,11.305899 42.307311,11.528989 42.629492,11.702022 42.268278,11.834888 42.125155,12.111124 42.215613,12.488708 42.468401,12.313202 42.719331,12.131517 42.952912,11.930674 43.120198,11.401685 42.560719,11.176742 42.217472,10.912865 M 44.258364,13.376742 C 43.484511,13.441629 42.975217,14.316685 43.291822,15.021798 43.626394,15.836292 44.732342,15.951236 45.442999,15.603933 46.329616,15.129326 46.183395,13.548539 45.144981,13.365 45.107807,13.596742 44.996902,13.887809 45.309789,13.947753 45.993185,14.34882 45.475217,15.400618 44.744734,15.307921 44.714374,14.653483 44.75031,13.997191 44.728625,13.342135 44.570632,13.339663 44.413879,13.35882 44.258364,13.376742 M 6.3451053,13.967528 C 6.3866171,14.598483 5.3965304,14.161573 4.9566295,14.290112 4.3345725,14.117079 3.7571252,14.624438 4.027881,15.258483 4.3773234,15.298652 4.4659232,15.13736 4.4628253,14.828989 5.0532838,14.682528 5.7174721,14.799326 6.3364312,14.768427 6.1257745,15.33882 6.9157373,15.338202 6.7149938,14.772753 7.0272615,14.749888 7.3413879,14.773371 7.6542751,14.761629 7.5291202,14.301854 7.1567534,14.217191 6.7255266,14.289494 6.771995,13.995337 6.6307311,13.892753 6.3451053,13.967528 M 7.7081784,15.472921 C 7.4851301,15.655843 7.2050805,15.804775 7.0260223,16.017978 6.8581165,16.549438 7.4491945,16.736067 7.7620818,17.027753 7.8767038,16.630393 7.6641884,16.407921 7.3649318,16.21882 7.7255266,16.140337 7.8990087,15.626798 7.7081784,15.472921 M 4.0322181,15.631742 C 3.850062,16.453034 5.0173482,15.938876 5.5148699,16.084101 5.9919455,16.016124 6.5061958,16.427079 6.2106568,16.914663 6.8624535,17.401629 6.9665428,16.218202 6.3884758,16.048258 6.7286245,16.139719 6.7527881,15.899944 6.7075589,15.63236 5.8159851,15.624944 4.9237918,15.62618 4.0322181,15.631742 M 45.54399,16.064326 C 45.540273,16.642753 45.521685,17.223034 45.55948,17.801461 44.771995,17.297191 44.165428,16.318933 43.252169,16.144663 43.241636,16.863371 43.244114,17.583933 43.251549,18.303258 44.063817,18.488652 43.374226,16.944326 43.722429,16.815787 44.475836,17.298427 45.037175,18.30573 45.947336,18.384831 45.956629,17.612978 45.953532,16.840506 45.948575,16.068652 45.814126,16.056292 45.678439,16.055674 45.54399,16.064326 M 4.8407683,17.200169 C 3.6641884,17.416461 3.6369269,19.338371 4.8178439,19.573202 4.8525403,19.345787 4.9739777,19.03618 4.6524164,18.979326 3.9671623,18.579494 4.4894672,17.525843 5.2187113,17.621629 5.2366791,18.274213 5.2156134,18.927416 5.2286245,19.580618 5.7819083,19.623258 6.4200743,19.415 6.657373,18.873034 7.180917,17.760056 5.8605948,16.815169 4.8407683,17.200169 M 42.258984,18.823596 C 42.250929,18.972528 42.24969,19.122079 42.259603,19.271011 43.495663,19.275955 44.732342,19.275955 45.968401,19.271011 45.977695,19.122079 45.976456,18.972528 45.969021,18.823596 44.732342,18.818034 43.495663,18.818034 42.258984,18.823596 M 43.01425,19.862416 C 41.885378,20.241854 42.351921,21.680506 42.259603,22.574101 43.48575,22.609326 44.730483,22.580281 45.964064,22.588315 46.199504,21.705843 44.969021,22.257697 44.492565,22.074157 44.457869,21.536517 44.54461,20.976011 44.365551,20.457528 44.178439,19.923596 43.525403,19.725225 43.01425,19.862416 M 5.0365551,19.987865 C 4.169145,20.036067 3.5768278,21.241742 4.3389095,21.820169 3.9975217,21.714494 4.0068154,22.019775 4.0662949,22.258315 5.2980173,22.259551 6.5297398,22.264494 7.7608426,22.255843 7.9993804,21.452472 6.894052,21.918427 6.5123916,21.765169 7.4126394,20.816573 6.0718711,19.612135 5.0365551,19.987865 M 4.051425,22.943034 C 3.8351921,23.776067 4.9690211,23.280449 5.452912,23.411461 6.0935564,23.229775 6.7199504,24.030674 6.1976456,24.527528 5.5173482,24.744438 4.7633209,24.567697 4.0532838,24.63073 3.8791822,25.511348 5.169145,24.938483 5.7001239,25.102247 6.7125155,25.342022 7.1964064,23.91882 6.4039653,23.376236 6.7521685,23.477584 6.7775713,23.21309 6.7292441,22.943034 5.8370508,22.935618 4.9436183,22.936236 4.051425,22.943034 M 44.3228,24.62764 C 43.551425,24.655449 42.986989,25.486011 43.258364,26.210281 43.545849,27.084101 44.723668,27.234888 45.451673,26.853596 46.326518,26.366629 46.162949,24.819213 45.140025,24.618371 45.111524,24.839607 44.978315,25.151067 45.2943,25.20236 45.990706,25.591685 45.476456,26.663258 44.741636,26.569326 44.716233,25.915506 44.75031,25.259831 44.727385,24.606011 44.591698,24.599831 44.456629,24.609101 44.3228,24.62764 M 42.216853,25.151685 C 42.017348,25.739382 42.491945,25.926011 42.954151,26.090393 43.097274,25.588596 42.513011,25.426685 42.216853,25.151685 M 4.0551425,25.927247 C 3.9931846,26.038483 4.0365551,26.246742 4.0322181,26.395056 4.9312268,26.394438 5.8339529,26.416685 6.7304833,26.383933 6.7366791,26.23191 6.7366791,26.07927 6.728005,25.927865 5.8370508,25.921685 4.9454771,25.922921 4.0551425,25.927247 M 7.0433705,25.909944 C 6.9064436,26.400618 7.4739777,26.560674 7.7614622,26.834438 7.948575,26.271461 7.5043371,26.053315 7.0433705,25.909944 M 45.923172,27.270112 C 45.3829,27.618652 44.850062,27.979551 44.306072,28.32191 43.958488,27.998708 43.638786,27.647079 43.291202,27.324494 43.089839,28.102528 43.960967,28.428202 44.364312,28.949157 43.669765,28.957809 42.975217,28.944213 42.281289,28.954719 42.270756,29.107978 42.271995,29.261236 42.27881,29.415112 43.51425,29.438596 44.752788,29.423764 45.988848,29.42191 46.23544,28.473315 44.913879,29.350843 44.638786,28.656236 45.115242,28.254551 46.330855,27.898596 45.923172,27.270112 M 5.0433705,28.459719 C 4.2131351,28.504831 3.6995043,29.467022 4.0594796,30.196236 4.4857497,31.155337 6.1096654,31.167697 6.6226766,30.283989 7.2242875,29.265562 6.1009913,28.137135 5.0433705,28.459719 M 45.040273,29.785899 C 45.039653,29.968202 44.856877,30.29573 45.166047,30.278427 45.737918,30.368652 45.811648,31.241854 45.306072,31.476067 44.855638,31.662079 44.27881,31.681236 43.861834,31.403764 43.44176,31.094775 43.585502,30.35382 44.121437,30.271629 44.172243,30.140618 44.14684,29.669719 43.884758,29.874888 42.983891,30.162865 43.026022,31.590393 43.861834,31.935225 44.550186,32.213315 45.57311,32.155225 45.932466,31.403764 46.275713,30.736348 45.815985,29.819888 45.040273,29.785899 M 4.9826518,31.303652 C 4.1270136,31.361124 3.5489467,32.543315 4.2887237,33.125449 3.9516729,33.031517 3.9851301,33.318258 4.0111524,33.560506 5.2472119,33.563596 6.4851301,33.575337 7.72057,33.554944 8.0266419,32.689775 6.633829,33.312697 6.5136307,33.015449 7.3519207,32.049551 5.9752169,30.940899 4.9826518,31.303652 M 42.238538,32.641573 C 42.108426,33.081573 42.371128,33.192809 42.767038,33.10691 42.898389,32.666292 42.633209,32.55691 42.238538,32.641573 M 43.270136,32.641573 C 43.262701,32.796685 43.262701,32.951798 43.270756,33.107528 44.162949,33.114326 45.056382,33.114326 45.948575,33.107528 45.95539,32.951798 45.95539,32.796685 45.949195,32.641573 45.056382,32.634775 44.162949,32.634775 43.270136,32.641573 M 43.766419,33.585843 C 43.065675,33.771236 42.986989,34.787191 43.486369,35.231517 43.157993,35.13264 43.128872,35.37118 43.140644,35.633202 44.036555,35.705506 44.934944,35.767921 45.832714,35.813034 46.081784,35.011517 44.910781,35.431742 44.436803,35.262416 43.768278,35.411966 43.22057,34.478202 43.83891,34.082079 44.525403,33.948596 45.242255,34.140169 45.939901,34.143258 45.971499,33.99 45.979554,33.832416 45.975217,33.676067 45.239157,33.652584 44.501239,33.521573 43.766419,33.585843 M 6.8990087,34.022753 C 5.9436183,34.076517 4.9851301,34.095674 4.0322181,34.165506 3.9826518,34.43309 4.0074349,34.686461 4.3339529,34.569045 3.8605948,34.957135 3.9417596,35.724663 4.4126394,36.078764 4.9826518,36.51382 5.8519207,36.479831 6.4318463,36.079382 6.9330855,35.719101 6.9622057,34.922528 6.5006196,34.515281 6.913259,34.470169 7.3302354,34.486854 7.7428748,34.441742 7.9429988,33.813876 7.2800496,34.025843 6.8990087,34.022753 M 43.579306,36.058371 C 42.876084,36.12882 42.641884,37.086067 43.032218,37.599607 42.684634,37.721966 41.592317,36.998933 41.695167,37.855449 42.909542,38.074831 44.123296,38.299775 45.339529,38.50927 45.644981,37.676854 44.247212,38.027247 43.73482,37.738034 43.100991,37.654607 43.056382,36.535449 43.740397,36.52927 44.383519,36.594775 45.01487,36.757303 45.654895,36.85309 45.692069,36.703539 45.718711,36.550899 45.739157,36.398876 45.019827,36.288258 44.307311,36.08309 43.579306,36.058371 M 5.6635688,36.677584 C 4.5012392,36.672022 3.9498141,38.242921 4.8952912,38.928258 5.7106568,39.507921 7.2713755,39.000562 7.2298637,37.881404 7.2534077,37.083596 6.4324659,36.458202 5.6635688,36.677584 M 42.959108,38.527809 C 42.203841,38.756461 41.887856,39.880562 42.493804,40.424382 43.047088,40.954607 44.097274,41.264213 44.660471,40.588146 45.145601,40.090056 45.039653,39.20264 44.415118,38.870169 44.342627,39.022809 44.041512,39.245899 44.301735,39.356517 44.80917,39.677247 44.506815,40.523876 43.928748,40.523258 43.452912,40.501629 42.924411,40.299551 42.658612,39.885506 42.394672,39.413371 42.859975,38.794157 43.394672,38.955449 43.659851,38.569213 43.353779,38.363427 42.959108,38.527809 M 7.2707559,39.207584 C 6.4907063,39.466517 5.7131351,39.734101 4.9337051,39.993652 4.9708798,40.142584 5.0192069,40.289663 5.0799257,40.431798 5.7007435,40.257528 6.2930607,39.956573 6.9374226,39.884888 7.2967782,39.853371 7.4584882,40.230337 7.4324659,40.519551 8.2236679,40.759326 7.8785626,39.603708 7.2862454,39.637697 7.739777,39.735337 7.610285,39.012303 7.2707559,39.207584 M 7.9962825,40.801348 C 7.2236679,41.209213 6.4584882,41.63191 5.6902107,42.048427 5.7515489,42.18809 5.8277571,42.321573 5.9083024,42.451348 6.464684,42.187472 6.9752169,41.823483 7.5539033,41.609663 8.0718711,41.419326 8.6654275,42.161517 8.2261462,42.565056 7.6871128,42.932753 7.0799257,43.189831 6.5223048,43.527247 6.6214374,43.642809 6.6710037,44.026573 6.8711276,43.860337 7.4337051,43.536517 8.0334572,43.271404 8.5681537,42.904944 9.2038414,42.419213 8.6672862,41.378539 7.9640644,41.304382 8.3085502,41.24691 8.216233,40.885393 7.9962825,40.801348 M 41.901487,40.934831 C 41.2057,41.100449 40.74969,41.969944 41.10347,42.616348 41.390335,43.11073 41.925651,43.485225 42.503098,43.531573 43.459727,43.577921 44.222429,42.282022 43.522305,41.53736 43.356877,41.673315 43.078686,41.855618 43.286865,42.076854 43.641264,42.800506 42.593556,43.38264 42.045229,42.891348 42.405204,42.346292 42.807311,41.829663 43.17658,41.291404 42.8228,41.016404 42.353779,40.80382 41.901487,40.934831 M 39.592317,42.064494 C 39.068773,42.600281 40.207559,42.89073 39.680917,43.27573 39.810409,43.493258 40.004957,43.558764 40.152416,43.318989 40.656753,43.739213 41.05948,44.276854 41.574969,44.685955 41.938662,44.908427 42.285006,44.54382 42.48575,44.272528 42.251549,43.943146 42.079926,44.09764 41.819083,44.256461 41.342627,43.941292 41.010533,43.448146 40.584882,43.069326 40.351301,42.872191 41.041512,42.750449 40.72119,42.563202 40.55824,42.275843 40.415118,42.644157 40.224907,42.704719 39.998761,42.506348 39.807931,42.272753 39.592317,42.064494 M 10.616481,43.039663 C 10.433705,43.100225 10.249071,43.152753 10.065675,43.210843 10.284387,43.681742 10.829616,43.409213 11.228005,43.421573 11.043371,43.268933 10.902726,42.874045 10.616481,43.039663 M 8.88228,43.224438 C 8.3562577,43.378933 7.894052,43.788652 7.697026,44.302191 7.3729864,45.256966 8.5817844,46.295787 9.4708798,45.754438 9.3420074,45.544326 9.197026,45.253876 8.9126394,45.438034 8.1567534,45.564719 7.830855,44.50736 8.3959108,44.072921 8.8928129,44.490674 9.3085502,45.05118 9.7812887,45.464607 10.980173,44.816348 10.197646,42.843146 8.88228,43.224438 M 39.244114,43.908539 C 38.571871,43.997528 37.946716,44.678539 38.136927,45.376854 38.289343,45.891011 38.664808,46.370562 39.172862,46.572022 40.019207,46.893371 41.048327,46.019551 40.804833,45.130281 40.583024,44.482022 39.993804,43.816461 39.244114,43.908539 M 37.506196,44.957247 C 37.153036,45.001124 36.968401,45.335449 36.977695,45.664831 36.888476,45.330506 36.66233,45.407135 36.438662,45.580169 36.88166,46.345225 37.332714,47.105955 37.785006,47.864831 37.921933,47.793146 38.057001,47.718371 38.187113,47.635562 37.903346,47.075056 37.481413,46.578202 37.29368,45.974438 37.175341,45.628989 37.516729,45.380562 37.828377,45.375618 37.801115,45.157472 37.827757,44.795337 37.506196,44.957247 M 11.669765,45.119157 C 11.326518,45.709326 10.918216,46.265506 10.625774,46.882865 10.38166,47.625056 11.35254,48.226348 11.997522,47.929101 11.745353,48.164551 11.903346,48.349326 12.183395,48.430899 12.648079,47.683764 13.108426,46.932921 13.566295,46.181461 12.957869,45.60427 12.784387,46.808708 12.41202,47.168371 12.224907,47.849382 10.987608,47.793764 11.099133,47.020056 11.361834,46.417528 11.777571,45.893483 12.090458,45.315674 11.958488,45.254494 11.786245,45.067865 11.669765,45.119157 M 35.273854,45.178483 C 34.657993,45.489944 35.61834,46.139438 34.972119,46.272303 35.031599,46.556573 35.182156,46.650506 35.42689,46.47191 35.705081,47.045393 35.933086,47.644213 36.242875,48.201629 36.45601,48.580449 37.16109,48.368483 37.236679,48.081742 37.127633,47.69427 36.890335,47.936517 36.621437,47.896966 36.325898,47.384045 36.112144,46.822921 35.86741,46.283427 36.248451,46.284045 36.373606,45.751966 35.977076,45.829213 35.51425,46.223483 35.536555,45.129045 35.273854,45.178483 M 14.615861,45.488708 C 14.712515,45.779775 14.708798,46.145 14.892813,46.381685 15.303594,46.727753 15.703841,46.305056 16.091698,46.133258 15.783767,45.902135 15.475217,45.923146 15.198885,46.184551 15.218711,45.789663 14.989467,45.568427 14.615861,45.488708 M 32.730483,46.064045 C 32.61834,46.102978 32.508055,46.144382 32.399009,46.19073 32.8228,47.324719 33.276332,48.449438 33.721809,49.575393 34.675341,49.483315 33.443618,48.611348 33.933705,48.122528 34.519207,48.194831 35.089219,49.364045 35.807311,48.796124 35.266419,48.404944 34.706939,48.038483 34.16233,47.652247 34.342007,47.218427 34.569393,46.802528 34.755266,46.370562 33.959108,46.441629 33.94052,47.366742 33.591078,47.883371 33.239777,47.357472 33.153656,46.41073 32.730483,46.064045 M 16.435564,46.257472 C 16.203841,46.531854 16.207559,46.898933 16.669145,46.879775 16.892813,46.619607 16.89653,46.236461 16.435564,46.257472 M 17.28005,46.532472 C 16.949814,47.69736 16.629492,48.866573 16.321561,50.038258 16.471499,50.077809 16.620818,50.120449 16.773854,50.147022 17.090458,48.980281 17.420694,47.817247 17.724907,46.648034 17.579306,46.597978 17.430607,46.560281 17.28005,46.532472 M 14.091698,46.628258 C 13.394052,46.920562 12.958488,47.805506 13.164808,48.534719 13.450434,49.400506 14.811029,49.611854 15.255266,48.764607 15.099752,48.697247 14.879802,48.40927 14.766419,48.655225 14.464064,49.112528 13.678439,48.917247 13.585502,48.392584 13.528501,47.951966 13.745353,47.505787 14.033457,47.182584 14.387237,46.794494 15.215613,47.007697 15.177819,47.583652 15.082404,47.864831 15.430607,47.825281 15.609665,47.890787 15.885998,47.042921 14.842007,46.362528 14.091698,46.628258 M 18.358736,46.803146 C 18.127014,47.090506 18.213755,47.463764 18.663569,47.401966 18.820322,47.068876 18.802354,46.760506 18.358736,46.803146 M 19.385998,47.046629 C 19.524783,47.308652 19.644362,47.608989 19.825898,47.831461 20.30917,48.083596 20.636307,47.602191 20.960347,47.314213 20.604709,47.154157 20.3228,47.271573 20.111524,47.576236 20.028501,47.199888 19.771375,47.019438 19.385998,47.046629 M 29.203222,47.057753 C 29.004957,47.036124 29.109665,47.227697 29.121437,47.340169 29.340768,48.44264 29.557001,49.546348 29.781289,50.647584 29.934325,50.624719 30.087361,50.599382 30.237918,50.561067 30.016729,49.373315 29.768897,48.18927 29.536555,47.003371 29.423792,47.013258 29.312887,47.035506 29.203222,47.057753 M 16.080545,47.235112 C 15.817844,48.05764 15.530359,48.873371 15.266419,49.695899 15.413259,49.752135 15.563197,49.805281 15.718092,49.83618 15.984511,49.00191 16.275093,48.175056 16.540273,47.340169 16.39777,47.294438 16.203222,47.181966 16.080545,47.235112 M 22.925651,47.466854 C 23.133829,47.68809 23.27943,48.02736 23.542131,48.162697 24.057001,48.316573 24.252169,47.772135 24.542751,47.467472 24.16109,47.371685 23.902107,47.525562 23.729864,47.84691 23.576208,47.500225 23.296778,47.385899 22.925651,47.466854 M 21.89715,47.553989 C 21.236059,47.538539 21.776952,48.569326 21.140644,48.343764 21.039653,48.630506 21.135688,48.767079 21.431846,48.741742 21.399628,49.404831 21.271375,50.064831 21.299876,50.729157 21.428748,51.106742 21.892193,51.112921 22.223048,51.082022 22.278191,50.733483 22.128253,50.636461 21.811029,50.605562 21.709418,50.019719 21.890954,49.388146 21.907683,48.786236 22.241016,48.954326 22.628872,48.579213 22.238538,48.436461 21.600991,48.589101 22.263321,47.498371 21.89715,47.553989 M 31.433705,47.550281 C 30.149938,47.693652 30.098513,49.572303 31.083643,50.141461 31.821561,50.553034 32.991326,50.070393 32.980793,49.152079 32.767038,49.171236 32.410781,49.096461 32.436183,49.419663 32.198885,50.173596 31.043371,49.935056 30.950434,49.202753 31.595415,49.039607 32.250929,48.917865 32.894672,48.751629 32.8228,48.051461 32.180297,47.374157 31.433705,47.550281 M 18.10347,47.766573 C 17.886617,48.616292 17.692069,49.472809 17.495043,50.327472 17.644362,50.369494 17.796778,50.405337 17.951053,50.426966 18.159851,49.576011 18.357497,48.722584 18.555762,47.869157 18.407063,47.825281 18.255886,47.79191 18.10347,47.766573 M 19.475836,48.108315 C 19.006815,48.149101 18.666667,48.702809 18.906444,49.124888 19.216853,49.602584 19.88166,49.608146 20.262082,49.99191 20.39653,50.709382 19.094796,50.585169 19.052045,49.977079 19.084263,49.702697 18.73482,49.836798 18.565056,49.790449 18.431227,50.980674 20.61772,51.323652 20.778191,50.118596 20.814746,49.268258 19.635068,49.370843 19.295539,48.797978 19.38228,48.219551 20.48513,48.45191 20.425031,49.026011 20.578067,49.030955 20.731722,49.032191 20.885378,49.023539 20.931846,48.304213 20.065056,48.002022 19.475836,48.108315 M 27.718711,48.232528 C 26.654895,48.288764 26.322181,49.642135 26.830235,50.429438 27.343247,51.344045 29.020446,51.086348 29.133829,50.002416 28.928748,50.022191 28.599752,49.871404 28.574969,50.17236 28.281289,50.925056 27.112144,50.574663 27.112144,49.814551 27.773234,49.724326 28.44176,49.689719 29.10223,49.595169 29.122057,48.856067 28.504957,48.106461 27.718711,48.232528 M 23.688352,48.417921 C 22.460347,48.370955 22.047088,50.127247 22.855638,50.866966 23.486369,51.442303 24.728625,51.209944 24.929988,50.316966 24.699504,50.290393 24.385998,50.151348 24.330235,50.474551 23.934944,51.148764 22.810409,50.643258 22.964064,49.915899 23.621437,49.902303 24.280669,49.931348 24.937423,49.902303 25.042751,49.16382 24.482652,48.359213 23.688352,48.417921 Z"
       id="path61"
       style="stroke-width:0.0618778" />
    <path
       fill="#ffffff"
       opacity="1"
       d="M 21.325279,3.1127528 C 22.104089,2.9508427 22.998141,3.1764045 23.496283,3.8240449 24.249071,4.7942697 24.267038,6.242191 23.685874,7.2989326 23.041512,8.5219101 21.144981,8.6862921 20.238538,7.6789888 19.065675,6.3361236 19.364932,3.5348315 21.325279,3.1127528 Z"
       id="path62"
       style="stroke-width:0.0618778" />
    <path
       fill="#ffffff"
       opacity="1"
       d="M 10.971499,10.938202 C 15.609046,10.934494 20.247212,10.923989 24.883519,10.943146 24.888476,15.694775 24.889095,20.44764 24.883519,25.19927 23.944857,24.874831 24.839529,26.384551 23.899009,26.043427 23.887856,25.067022 23.902107,24.090618 23.892193,23.114831 23.743494,23.09382 23.592317,23.09691 23.444238,23.112978 23.433086,24.089382 23.447955,25.065787 23.437423,26.042191 23.274473,26.053315 23.111524,26.051461 22.949195,26.044045 22.936803,24.337809 22.952912,22.630955 22.94114,20.925337 22.792441,20.916685 22.643123,20.916067 22.494424,20.924101 22.483891,22.630955 22.49938,24.337809 22.486989,26.044663 22.317224,26.052079 22.14746,26.051461 21.978315,26.043427 21.967162,23.768652 21.981413,21.493876 21.97088,19.219101 21.822181,19.204888 21.671623,19.204888 21.523544,19.219719 21.512392,21.493876 21.527881,23.76927 21.516109,26.043427 21.353779,26.050225 21.19145,26.054551 21.02912,26.043427 21.015489,23.287247 21.032838,20.530449 21.020446,17.77427 20.871747,17.766236 20.722429,17.765618 20.57373,17.773652 20.562577,20.530449 20.577447,23.287247 20.566295,26.044045 20.403346,26.051461 20.240397,26.051461 20.078067,26.044045 20.067534,22.957865 20.081784,19.871685 20.070632,16.785506 19.915737,16.777472 19.760223,16.778708 19.605948,16.78427 19.5886,19.869831 19.608426,22.956011 19.596035,26.041573 19.433705,26.053315 19.270756,26.052697 19.108426,26.043427 19.094176,22.758876 19.112763,19.47309 19.099133,16.188539 18.951053,16.180506 18.802354,16.17927 18.654275,16.188539 18.640025,19.472472 18.655514,22.75764 18.64684,26.042191 18.483891,26.054551 18.319703,26.050225 18.156753,26.044663 18.144362,22.635899 18.16233,19.225899 18.148699,15.817135 17.993185,15.809101 17.837051,15.807865 17.681537,15.822079 17.672243,19.228989 17.685254,22.635281 17.675341,26.042191 17.513011,26.053315 17.349442,26.051461 17.187113,26.044045 17.173482,22.765674 17.193309,19.486685 17.177819,16.208315 17.02974,16.202135 16.881041,16.201517 16.733581,16.207697 16.718711,19.486067 16.736059,22.765674 16.724907,26.044663 16.561958,26.051461 16.399009,26.051461 16.236679,26.044045 16.224907,22.958483 16.241016,19.871685 16.228625,16.785506 16.079926,16.777472 15.931227,16.77809 15.782528,16.786124 15.770136,19.871685 15.788104,22.957865 15.773234,26.043427 15.604709,26.052079 15.434944,26.051461 15.266419,26.044045 15.253408,23.294663 15.270756,20.544045 15.258364,17.794663 15.109665,17.786629 14.960967,17.785393 14.812887,17.794045 14.800496,20.543427 14.815985,23.293427 14.804833,26.042809 14.642503,26.054551 14.478315,26.050225 14.315985,26.044045 14.303594,23.768034 14.32342,21.491404 14.307311,19.214775 14.158612,19.206742 14.009913,19.20736 13.861834,19.216011 13.849442,21.491404 13.866171,23.768034 13.853779,26.044045 13.69145,26.051461 13.527881,26.053315 13.365551,26.042191 13.355019,24.344607 13.369888,22.647022 13.358736,20.949438 13.203841,20.934607 13.047088,20.937079 12.892193,20.944494 12.877943,22.644551 12.895291,24.344607 12.883519,26.044045 12.72057,26.051461 12.557621,26.051461 12.395291,26.044045 12.38228,25.065169 12.401487,24.085674 12.386617,23.106798 12.238538,23.098146 12.089219,23.098764 11.94114,23.107416 11.92689,24.086292 11.948575,25.066404 11.931227,26.045281 10.833333,26.380843 12.048947,24.42 10.971499,24.726517 10.962206,20.130618 10.962206,15.534101 10.971499,10.938202 Z"
       id="path63"
       style="stroke-width:0.0618778" />
    <path
       fill="#ffffff"
       opacity="1"
       d="M 44.139405,13.874213 C 44.574969,13.909438 44.241636,14.872865 44.330235,15.287528 43.519207,15.309775 43.318463,14.021292 44.139405,13.874213 Z"
       id="path64"
       style="stroke-width:0.0618778" />
    <path
       fill="#ffffff"
       opacity="1"
       d="M 5.622057,17.640169 C 6.5712515,17.617303 6.5879802,19.136292 5.6226766,19.093034 5.6133829,18.609157 5.6146221,18.124045 5.622057,17.640169 Z"
       id="path65"
       style="stroke-width:0.0618778" />
    <path
       fill="#ffffff"
       opacity="1"
       d="M 43.146221,20.359888 C 44.197646,20.099719 44.070632,21.521067 43.967162,22.092079 43.549566,22.095787 43.13197,22.098258 42.714374,22.090843 42.788724,21.531573 42.457869,20.617584 43.146221,20.359888 Z"
       id="path66"
       style="stroke-width:0.0618778" />
    <path
       fill="#ffffff"
       opacity="1"
       d="M 4.9776952,20.482865 C 5.4628253,20.390787 6.1951673,20.386461 6.3859975,20.950674 6.5786865,22.032753 4.5520446,22.173652 4.377943,21.194775 4.3469641,20.843146 4.6462206,20.542191 4.9776952,20.482865 Z"
       id="path67"
       style="stroke-width:0.0618778" />
    <path
       fill="#ffffff"
       opacity="1"
       d="M 44.251549,25.112135 C 44.457249,25.390225 44.290582,26.105225 44.333953,26.550169 43.442999,26.581067 43.336431,25.140562 44.251549,25.112135 Z"
       id="path68"
       style="stroke-width:0.0618778" />
    <path
       fill="#ffffff"
       opacity="1"
       d="M 5.0272615,28.943596 C 5.5780669,28.798989 6.4299876,29.03073 6.3754647,29.730899 6.27943,30.529326 5.1778191,30.591742 4.6245353,30.243202 4.0935564,29.87118 4.3890954,28.97264 5.0272615,28.943596 Z"
       id="path69"
       style="stroke-width:0.0618778" />
    <path
       fill="#ffffff"
       opacity="1"
       d="M 4.9194548,31.795562 C 5.4584882,31.650337 6.4231722,31.759101 6.3612144,32.506236 6.216233,33.237921 5.1920694,33.253989 4.6480793,32.987022 4.1158612,32.695955 4.3488228,31.870337 4.9194548,31.795562 Z"
       id="path70"
       style="stroke-width:0.0618778" />
    <path
       fill="#ffffff"
       opacity="1"
       d="M 5.4182156,34.517135 C 5.9628253,34.412697 6.6840149,34.923146 6.3556382,35.508989 5.9237918,36.07382 4.7199504,36.109045 4.4275093,35.387247 4.2614622,34.806348 4.9287485,34.478202 5.4182156,34.517135 Z"
       id="path71"
       style="stroke-width:0.0618778" />
    <path
       fill="#ffffff"
       opacity="1"
       d="M 5.6511772,37.163933 C 6.0916976,37.029213 6.7038414,37.17691 6.8054523,37.686124 6.9956629,38.646461 5.3723668,39.058034 4.9033457,38.319551 4.5755886,37.780674 5.105948,37.206573 5.6511772,37.163933 Z"
       id="path72"
       style="stroke-width:0.0618778" />
    <path
       fill="#ffffff"
       opacity="1"
       d="M 41.892193,41.364326 C 42.120198,41.274101 42.366171,41.353202 42.571252,41.463202 42.298017,41.861798 42.013631,42.254213 41.726766,42.643539 41.237918,42.346292 41.345105,41.527472 41.892193,41.364326 Z"
       id="path73"
       style="stroke-width:0.0618778" />
    <path
       fill="#ffffff"
       opacity="1"
       d="M 9.0055762,43.656404 C 9.7075589,43.350506 10.358736,44.434438 9.6995043,44.855281 9.5216853,44.461011 8.3983891,43.928933 9.0055762,43.656404 Z"
       id="path74"
       style="stroke-width:0.0618778" />
    <path
       fill="#ffffff"
       opacity="1"
       d="M 39.181537,44.337416 C 40.010533,44.236685 40.845725,45.565955 40.026022,46.101742 39.011152,46.69809 37.865551,44.629719 39.181537,44.337416 Z"
       id="path75"
       style="stroke-width:0.0618778" />
    <path
       fill="#ffffff"
       opacity="1"
       d="M 31.555143,47.919213 C 31.912639,47.876573 32.249071,48.147247 32.317844,48.493933 31.835812,48.596517 31.358736,48.72073 30.874845,48.810337 30.804213,48.385169 31.108426,47.938989 31.555143,47.919213 Z"
       id="path76"
       style="stroke-width:0.0618778" />
    <path
       fill="#ffffff"
       opacity="1"
       d="M 27.580545,48.657079 C 28.021066,48.479101 28.518587,48.803539 28.565675,49.265787 28.075589,49.323876 27.583643,49.377022 27.091698,49.417191 27.08798,49.097079 27.256506,48.754719 27.580545,48.657079 Z"
       id="path77"
       style="stroke-width:0.0618778" />
    <path
       fill="#ffffff"
       opacity="1"
       d="M 23.442999,48.850506 C 23.910781,48.645955 24.452912,49.030955 24.442379,49.532753 23.947336,49.550056 23.449195,49.549438 22.954151,49.533371 22.989467,49.244157 23.151797,48.945674 23.442999,48.850506 Z"
       id="path78"
       style="stroke-width:0.0618778" />
  </g>
  <g
     id="#d9bc00ff"
     transform="scale(0.06195787,0.06179775)">
    <path
       fill="#d9bc00"
       opacity="1"
       d="M 405.18,177.04 C 479.97,176.9 554.81,176.63 629.59,177.18 629.65,258.59 629.74,340.02 629.55,421.43 554.78,421.56 480,421.49 405.23,421.46 404.89,340 405,258.5 405.18,177.04 Z"
       id="path79" />
  </g>
  <g
     id="#339b3cff"
     transform="scale(0.06195787,0.06179775)">
    <path
       fill="#339b3c"
       opacity="1"
       d="M 177.23,425.34 C 251.99,425.16 326.8,425.07 401.56,425.38 401.67,521.07 401.86,616.8 401.47,712.48 361.27,714.15 320.31,708.68 283.17,692.7 231.47,670.82 180.9,626.5 177.24,567 176.82,519.79 176.79,472.54 177.23,425.34 Z"
       id="path80" />
  </g>
  <g
     id="#d53c2cff"
     transform="scale(0.06195787,0.06179775)">
    <path
       fill="#d53c2c"
       opacity="1"
       d="M 412.93,425.3 C 415.47,425.1 418.04,425.1 420.58,425.36 421.04,441.12 420.14,456.96 421,472.68 423.25,472.87 425.52,472.88 427.78,472.68 428.35,456.91 427.49,441.08 428.2,425.31 430.72,425.09 433.27,425.09 435.8,425.31 436.5,452.75 435.67,480.25 436.21,507.7 438.63,507.88 441.09,507.87 443.51,507.56 444.04,480.16 443.13,452.68 443.95,425.3 446.46,425.1 449,425.08 451.51,425.42 451.85,461.27 451.52,497.14 451.67,533 450.74,537.4 456.15,535.43 458.75,535.66 459.64,498.91 458.32,462.07 459.23,425.31 461.73,425.09 464.25,425.09 466.75,425.33 467.45,469.73 466.63,514.24 467.24,558.64 469.79,558.43 475.19,560.38 474.35,556 474.44,512.48 474.17,468.94 474.48,425.43 477.16,425.07 479.88,425.07 482.58,425.35 482.9,475.23 482.37,525.14 482.84,575.02 485.14,575.27 487.48,575.29 489.79,575 490.46,525.12 489.54,475.19 490.21,425.31 492.72,425.08 495.26,425.08 497.79,425.31 498.49,478.28 497.62,531.3 498.17,584.28 500.48,584.56 502.84,584.54 505.16,584.28 505.63,531.31 505.1,478.31 505.42,425.35 508.13,425.08 510.87,425.09 513.58,425.35 513.75,479.58 513.61,533.81 513.65,588.03 512.82,592.3 518.29,590.44 520.74,590.64 521.18,536.44 520.73,482.21 520.96,428.01 520.01,423.33 526.03,425.64 528.75,425.32 529.43,478.39 528.46,531.58 529.29,584.65 531.86,584.44 537.18,586.36 536.34,581.99 536.45,529.81 536.16,477.6 536.49,425.42 539.23,425.59 545.24,423.34 544.33,427.99 544.43,476.93 544.23,525.89 544.43,574.82 546.84,575.31 549.34,575.31 551.78,575 552.51,525.12 551.67,475.19 552.2,425.3 554.72,425.09 557.27,425.09 559.81,425.31 560.32,469.87 559.58,514.48 560.2,559.04 562.5,559.29 564.83,559.27 567.14,559.02 567.65,514.48 567.08,469.9 567.43,425.35 570.16,425.66 576.18,423.33 575.32,428 575.42,463.87 575.2,499.76 575.42,535.64 577.79,535.86 580.19,535.86 582.57,535.63 582.98,498.87 582.21,462.06 582.95,425.32 585.55,425.1 588.18,425.09 590.78,425.32 591.52,452.19 590.86,479.12 591.11,506.01 590.49,509.8 595.9,507.72 598.17,508.04 598.65,480.49 598.11,452.91 598.43,425.36 600.96,425.1 603.53,425.09 606.07,425.31 606.85,441.03 605.95,456.83 606.49,472.57 608.81,472.89 611.18,472.89 613.5,472.57 614.06,456.83 613.14,441.02 613.94,425.29 631.72,420.21 611.58,452.79 629.48,447.83 629.74,487.53 629.82,527.28 629.44,566.99 627.85,603.93 605.52,636.73 577.8,659.76 530.3,699.75 466.39,715.38 405.24,712.62 404.48,622.44 405.11,532.19 404.93,441.99 403.71,436.94 409.44,439.02 412.49,438.38 412.98,434.03 412.29,429.64 412.93,425.3 Z"
       id="path81" />
  </g>
</svg>
